<svg width="40" height="27" viewBox="0 0 40 27" fill="none" xmlns="http://www.w3.org/2000/svg">
<path fill-rule="evenodd" clip-rule="evenodd" d="M2.5 13.5001C2.5 13.2763 2.6317 13.0617 2.86612 12.9035C3.10054 12.7452 3.41848 12.6563 3.75 12.6563H33.2325L25.365 7.34746C25.1303 7.18903 24.9984 6.97415 24.9984 6.75009C24.9984 6.52603 25.1303 6.31115 25.365 6.15271C25.5997 5.99428 25.9181 5.90527 26.25 5.90527C26.5819 5.90527 26.9003 5.99428 27.135 6.15271L37.135 12.9027C37.2514 12.9811 37.3438 13.0742 37.4068 13.1767C37.4698 13.2792 37.5022 13.3891 37.5022 13.5001C37.5022 13.6111 37.4698 13.721 37.4068 13.8235C37.3438 13.926 37.2514 14.0191 37.135 14.0975L27.135 20.8475C26.9003 21.0059 26.5819 21.0949 26.25 21.0949C25.9181 21.0949 25.5997 21.0059 25.365 20.8475C25.1303 20.689 24.9984 20.4741 24.9984 20.2501C24.9984 20.026 25.1303 19.8111 25.365 19.6527L33.2325 14.3438H3.75C3.41848 14.3438 3.10054 14.2549 2.86612 14.0967C2.6317 13.9385 2.5 13.7239 2.5 13.5001V13.5001Z" fill="white"/>
</svg>
